<svg xmlns="http://www.w3.org/2000/svg" viewBox="0 0 1000 1000"><defs><style>.cls-1,.cls-14,.cls-5,.cls-6{fill:none;}.cls-2{fill:#ddc489;}.cls-3{fill:#eedbb2;}.cls-11,.cls-15,.cls-4{fill:#fff;}.cls-15,.cls-4,.cls-5,.cls-6,.cls-7,.cls-8,.cls-9{stroke:#3f4250;stroke-linecap:round;}.cls-4,.cls-5{stroke-linejoin:round;}.cls-14,.cls-15,.cls-4,.cls-5,.cls-6,.cls-8,.cls-9{stroke-width:4px;}.cls-14,.cls-15,.cls-6,.cls-9{stroke-miterlimit:10;}.cls-10,.cls-12,.cls-7,.cls-8,.cls-9{fill:#3f4250;}.cls-12{fill-rule:evenodd;}.cls-13{fill:#f9f9f9;}.cls-14{stroke:#dc8e8e;}.cls-16{fill:#dc8e8e;}.cls-17{fill:#eaadad;}.cls-18{fill:#baeafd;}.cls-19{fill:#bad7cb;}</style></defs><g id="Layer_2" data-name="Layer 2"><g id="Character"><rect class="cls-1" width="1000" height="1000"/><path class="cls-2" d="M500.58,513.17l-.93-1.7s16.54-12.23,16.75-14.6,9.68,5.74,9.68,5.74,9.86,6.5,11.32,12.55,1.21,15.44-.67,17.18-2.16-5.8-4.13-9.18-10-16.57-20.94-13.62-5,5.61-5,5.61Z"/><path class="cls-3" d="M488.82,486.23v-4.56s20.46-3.57,25.2,3.39,3,12.1-1.6,15.48-14.23,12.34-14.23,12.34-7.2-4-28.23-1.62c0,0,0-4,2.49-5.59s19.63-4.32,24.74-8.61C508.63,487.45,495.81,488.41,488.82,486.23Z"/><path class="cls-3" d="M411,507.27s-2.64.77,0-6c1.43-3.61,2.06-9,5.44-10.6,3-1.44,8.68.52,10.51,1.73,2.06,1.36,7.32-.16,7.58,2.09.25,2.05-4.41,7.77-4.47,11.13-.15,7.09-2.82,23.15-2.82,23.15s-6-.44-6-.63,5.4-19.09,1.21-22.18S411,507.27,411,507.27Z"/><path class="cls-3" d="M386.64,490.75s-4.52-3.76-7.17-2.44-6.1,4.15-5.86,11.88-3,26.5,9.54,29,6.05-1.75,5-5.15-2.77-20.79-2.65-24.73A53.56,53.56,0,0,1,386.64,490.75Z"/><path class="cls-3" d="M505.71,514.51s2.32-7.23,11.42-5.08,14.32,10.13,16.35,14.25,3.87,12.76.19,15.89-6.75,8.6-16.24,5.89-5.24-3-1.56-4.12,9-4.61,9.82-9.15C527.34,523.16,514.18,514.79,505.71,514.51Z"/><path class="cls-2" d="M386.89,488.31s21.62-2,24.91,1.34,3.68,3.36,1.29,6.39-5.9,13.18-2.14,11.69,12.82-8.43,12.27,2a110,110,0,0,1-2.71,19L389.8,528s-4.61-18.36-3.92-30.36S386.89,488.31,386.89,488.31Z"/><path class="cls-4" d="M375,492.36s-12-2.06-21.89-2.71-12.26-8.51-18.32-10.58a7.77,7.77,0,0,0-9.17,2.84l10.52,22.42L373.61,517"/><path class="cls-5" d="M390.38,529.06a39.65,39.65,0,0,1-4.65-17.53c-.09-9.68,0-17.81.58-20.81s-5.13-4.16-7.74-2.52-5.81,5.52-5.61,16.17,0,24.72,10.45,24.69S390.38,529.06,390.38,529.06Z"/><path class="cls-5" d="M421.09,528.78s6.46-28.16-1.8-24.67-15.49,9.94-3.88-11.75"/><path class="cls-5" d="M427.93,528.78s2.2-16.35,2.33-20.48,5.33-15.15,5.33-15.15"/><path class="cls-5" d="M446.45,528.56s8.33-15.87,25.81-17.61,39.59,4.26,49,10.84,5,14.32,1.06,16.55-16.55,6.87-29.9,1.84S466.84,526,463.75,526.43s-2.91,2-2.91,2Z"/><path class="cls-5" d="M468.92,511.47a8.41,8.41,0,0,1,6.92-7.59c6.59-1.26,21.13-2.11,29.14-17.13"/><path class="cls-5" d="M488,481.77s22.42-3.25,27.16,5-1.55,13.65-5.51,16.94-12.43,9-12.43,9"/><path class="cls-5" d="M510.4,542.05s11.61,8.29,19.26,1.71,10.16-14.71,8.52-25.84S516,496.27,516,496.27"/><path class="cls-5" d="M505,514.63s2.91-7.55,12.58-4.46,18,11.91,17.91,26.72"/><path class="cls-5" d="M502.77,490.33l-4.41-2.26a10.91,10.91,0,0,0-3.86-1.15l-6.6-.69"/><line class="cls-5" x1="347.14" y1="529.45" x2="333.47" y2="498.3"/><path class="cls-5" d="M385.88,489s14.91-3.16,25.92,0c0,0,28.72,5.8,34.65,3.34s3.81-10.59,3.81-10.59"/><path class="cls-5" d="M435,506.5s8.76,6.13,25.62,1.61"/><path class="cls-6" d="M451.78,423s-8.46,26.31-9.74,36.62-4.77,20.13,20.19,25.25"/><path class="cls-6" d="M488,485.46V465.12s10,4.05,9.7-4.37-10.34-7.47-10.34-7.47"/><path class="cls-7" d="M493.84,454s6.4-12.83,4.7-20.83-3.52-14.93-24.86-19.73-23.14,1.28-23.36,4.58-1.6,11.2,30.94,12.06c0,0,0,4.9,2.77,8s2.51,16.14,2.51,16.14Z"/><line class="cls-5" x1="478.75" y1="440.75" x2="474.32" y2="437.49"/><line class="cls-5" x1="457.95" y1="430.67" x2="453.84" y2="431.95"/><path class="cls-5" d="M460.24,442,458,449s-4.91-.75-5.87,1.55,3.31,4.64,3.31,4.64"/><rect class="cls-7" x="452.1" y="437.5" width="3.49" height="5.32" rx="1.74" transform="translate(808.14 963.8) rotate(-168.21)"/><path class="cls-5" d="M468.14,463.7s-.86,2.77-5.91,2.84"/><path class="cls-8" d="M469.66,443.45a5.22,5.22,0,0,1,5.35,2.43"/><g id="freepik--Car--inject-149"><path class="cls-5" d="M65,729.86s-16.52-7.5-17.43-19.29,0-42.87,0-42.87S67,589.19,69.77,579.55,88,554.06,107.23,544.34,202.6,510,202.6,510h0S343,388.1,383.34,382.76c0,0,113.81-8.8,246.93-4.5s273-2.2,279.41,6.39c0,0,18.35,75,27.53,137.2s5.51,158.65,5.51,158.65,9.18,0,8.27,22.6-3.68,23.58-14.69,26.7S892.14,731,892.14,731s-6.56-114.2-114.21-102.61c-74.87,8.07-85.66,86.6-83.83,109.19l-385,7.18s10.2-122.32-109.95-118.45c-90.87,2.93-88.12,118.17-87.89,117.49C111.23,743.81,75.08,750.24,65,729.86Z"/><path class="cls-9" d="M319.27,475.63s-52.78,44.78-49.3,52.11c1.6,3.44,56.3,1.89,56.3,1.89Z"/><path class="cls-5" d="M512.32,482.51l5.24-84.84s-89.15,3.86-95.48,5.59c-10.27,2.83-27.63,2.46-60.49,33.23-11.16,10.44-26.71,24.76-42.32,39.14l7,54L468,528.36"/><path class="cls-10" d="M69.77,579.55s57.61-9.12,70.84-8.52,15.32,1.81,15.32,1.81-28.24,36-37,38.45-57.06-1.11-57.06-1.11Z"/><path class="cls-9" d="M327,480.93s12,17,10.68,35.13a12.6,12.6,0,0,1-12.59,11.68H289.4s-6.82-5.93-3.56-12.44,5.94-5.26,5.94-5.26S306.59,480,327,480.93Z"/><path class="cls-10" d="M910.51,593.86l1.64,65.94H943s-.53-44.59-1.16-59.47c-.12-2.58-3.2-4.53-5.78-4.71Z"/><path class="cls-11" d="M299.55,527.74a5.84,5.84,0,0,1-2.8-1.39,11.29,11.29,0,0,1-4.43-6.17,25.71,25.71,0,0,1-.58-7.47,9,9,0,0,1,.29-3.06,9.22,9.22,0,0,1,.45,3,40.79,40.79,0,0,0,.86,7.21,12.34,12.34,0,0,0,3.89,5.81C298.6,527,299.61,527.58,299.55,527.74Z"/><path class="cls-5" d="M505.16,559a6.18,6.18,0,0,0-2.82-10.28,21.82,21.82,0,0,0-4.35-.16H457.91a5.88,5.88,0,0,0-1.23,11.61,13.9,13.9,0,0,0,2.81.14h2.88l20,.1,13.49.17,3.68.1a5.42,5.42,0,0,1,1.27.12"/><path class="cls-11" d="M297.37,506a13.4,13.4,0,0,1,1.75-4A38.22,38.22,0,0,1,314,487.44a13.25,13.25,0,0,1,4.11-1.66,72.71,72.71,0,0,0-11.75,8.67A74.19,74.19,0,0,0,297.37,506Z"/><path class="cls-11" d="M193.47,516.26a13.56,13.56,0,0,1-2.31,1.25c-1.52.76-3.71,1.79-6.45,3.07-5.48,2.5-13.1,5.85-21.59,9.34s-16.27,6.49-21.94,8.57c-2.81,1-5.11,1.85-6.71,2.38a11.09,11.09,0,0,1-2.53.72,14.28,14.28,0,0,1,2.38-1.11l6.6-2.69,21.79-8.85,21.7-9.06,6.57-2.74A12.08,12.08,0,0,1,193.47,516.26Z"/><path class="cls-11" d="M127.24,702.52a40.43,40.43,0,0,1,.14-11.15,38.72,38.72,0,0,1,2.22-10.91c.29,0-.52,4.95-1.15,11A104.47,104.47,0,0,1,127.24,702.52Z"/><path class="cls-11" d="M404,568.83c0,.29-25.89.53-57.81.53s-57.83-.24-57.83-.53,25.89-.53,57.83-.53S404,568.54,404,568.83Z"/></g><line class="cls-5" x1="202.6" y1="509.95" x2="280.75" y2="511.46"/><line class="cls-5" x1="148.59" y1="576.19" x2="239" y2="510.71"/><line class="cls-5" x1="275.65" y1="626.32" x2="279.51" y2="529.49"/><path class="cls-5" d="M279.51,512.79v-2.55A41.85,41.85,0,0,1,294.66,478L365.92,419a116,116,0,0,1,69.1-26.6l120.68-5.2"/><line class="cls-5" x1="532.2" y1="541.79" x2="530.14" y2="707.16"/><line class="cls-5" x1="534.79" y1="388.22" x2="532.79" y2="507.92"/><line class="cls-5" x1="358.24" y1="706.78" x2="678.04" y2="706.78"/><polyline class="cls-5" points="836.69 388.22 898.83 392.29 909.86 429.45"/><path class="cls-10" d="M47.15,690.72,75.1,709.56,68,729.86S47.16,721.7,47.15,707,47.15,690.72,47.15,690.72Z"/><line class="cls-5" x1="113.44" y1="718.84" x2="130.63" y2="718.84"/><line class="cls-5" x1="288.97" y1="718.84" x2="304.76" y2="718.84"/><g id="Слой_2" data-name="Слой 2"><g id="Слой_1-2" data-name="Слой 1-2"><path class="cls-10" d="M675.7,510.8h-1.39l-15.68,36.39h-3.26V557h3.94v-6h32.11v6h3.94v-9.75h-3.11Zm-12.55,36.39L675,519.06l12.51,28.16Zm47.94-26.72a14.63,14.63,0,0,0-11.38,5A15.59,15.59,0,0,0,722,547.26l.18-.19a16,16,0,0,0,.25-21.61,14.61,14.61,0,0,0-11.35-5Zm10,21.78a11.14,11.14,0,0,1-4.22,4.34,11.89,11.89,0,0,1-11.59,0,11.12,11.12,0,0,1-4.2-4.3,12.15,12.15,0,0,1-1.52-6,11.77,11.77,0,0,1,3.41-8.51,11.18,11.18,0,0,1,15.8-.5c.17.16.33.33.49.5a11.74,11.74,0,0,1,3.42,8.51,12.15,12.15,0,0,1-1.61,6ZM751.19,533H734V521.25h-3.8V551H734V536.65h17.19V551H755V521.25h-3.79Zm22.94-12.55a14.61,14.61,0,0,0-11.37,5A15.57,15.57,0,0,0,785,547.23l.18-.18a16,16,0,0,0,.23-21.61,14.56,14.56,0,0,0-11.32-5Zm10,21.81a11.06,11.06,0,0,1-4.22,4.31,11.9,11.9,0,0,1-11.62,0,11.12,11.12,0,0,1-4.2-4.3,12.25,12.25,0,0,1-1.51-6,11.77,11.77,0,0,1,3.36-8.53,11.17,11.17,0,0,1,15.8-.48c.17.15.33.32.49.48a11.77,11.77,0,0,1,3.42,8.52A12.15,12.15,0,0,1,784.12,542.28Zm35.45-17.23a14.62,14.62,0,0,0-10.78-4.55,13.8,13.8,0,0,0-6.54,1.56,15.16,15.16,0,0,0-5.18,4.67v-5.46h-3.8v40.56h3.8v-16a16.2,16.2,0,0,0,5.34,4.39,14.87,14.87,0,0,0,17.2-3.1A15.33,15.33,0,0,0,824,536,15.1,15.1,0,0,0,819.57,525.05Zm-1,17.1a11.68,11.68,0,0,1-4.3,4.44,11.23,11.23,0,0,1-5.76,1.59,11.93,11.93,0,0,1-5.92-1.59,11,11,0,0,1-4.31-4.29,12.22,12.22,0,0,1-1.51-6.06,11.81,11.81,0,0,1,3.38-8.61,11.1,11.1,0,0,1,8.34-3.46,11.45,11.45,0,0,1,10.12,6,12.12,12.12,0,0,1,0,12Z"/><path class="cls-10" d="M851.14,535.05a29.92,29.92,0,0,1-.41,6.27,9.54,9.54,0,0,1-1.79,3.64,8.61,8.61,0,0,1-3,2.35,9.19,9.19,0,0,1-3.79.85,10.39,10.39,0,0,1-4.55-1.08,8.19,8.19,0,0,1-3.35-2.68,9,9,0,0,1-1.38-4,50.8,50.8,0,0,1-.16-5.38V510.8h-4v24.26a31.82,31.82,0,0,0,.76,8.46,11.16,11.16,0,0,0,4.62,6.14,14.39,14.39,0,0,0,8.29,2.32,12.19,12.19,0,0,0,11.77-8.23,29.69,29.69,0,0,0,1-8.7V510.8h-4ZM878,510.78h-1L858.1,551h4.46l6.22-13.22H886L892.29,551h4.31Zm-7.36,23.08,6.83-14.54,6.82,14.54Z"/><path class="cls-12" d="M632.7,510.7a7.2,7.2,0,0,0-7-7.33h-.24a7.18,7.18,0,0,0-7,7.33h0c0,5.68,3.07,6.58,5.1,10.95a28.34,28.34,0,0,1,1.89,7,1.93,1.93,0,0,1,.48,0,25.73,25.73,0,0,1,1.78-7C629.62,517.28,632.7,516.38,632.7,510.7Zm13.92,3.21h0C645.66,512.63,646.13,513.22,646.62,513.91Zm-19.31,15.38a2,2,0,0,1,.29.4,25.21,25.21,0,0,1,6.48-2.76c4.55-1,7.14.94,11.45-2.54a7.52,7.52,0,0,0,1.24-10.29l.44.58-.44-.58h0l-.11-.12,0-.05a6.89,6.89,0,0,0-9.62-1.5l-.28.22c-4.31,3.49-3.11,6.56-5.18,10.9A25.12,25.12,0,0,1,627.31,529.29Zm19.46-15.16-.15-.19h0l0,0Zm5.31,23.69.09-.51h0Zm-5.39-9.43c-5.36-1.12-6.82,1.83-11.37,3a22.93,22.93,0,0,1-7,.43,2.77,2.77,0,0,1-.1.5,26.23,26.23,0,0,1,6.24,3.29c3.72,2.92,4,6.24,9.33,7.36a7.06,7.06,0,0,0,8.3-5.56c0-.06,0-.12,0-.18h0l0-.24A7.31,7.31,0,0,0,646.69,528.39Zm5.46,8.88.05-.23h0Zm.15-.74-.1.5h0Zm-20.57,2.76a24.3,24.3,0,0,1-4.66-5.4,1.78,1.78,0,0,1-.43.23,28.61,28.61,0,0,1,1.37,7.16c.11,4.84-2.24,7.09.25,12.13a6.93,6.93,0,0,0,9.21,3.35l.32-.16-.16.08.34-.18h0l.15-.08-.15.08a7.47,7.47,0,0,0,3.07-9.86C638.55,541.57,635.42,542.23,631.73,539.29Zm5.77,17.44-.39.2Zm-21.3-21.05a25.91,25.91,0,0,1,6.24-3.3,2.11,2.11,0,0,1-.1-.5,23,23,0,0,1-6.93-.46c-4.55-1.2-6-4.15-11.37-3a7.32,7.32,0,0,0-5.49,8.67l-.12-.61.16.84h0l0-.23,0,.24a7.07,7.07,0,0,0,8.16,5.77l.18,0c5.33-1.12,5.58-4.44,9.3-7.36Zm-17.61,1.61h0C598.9,538.87,598.75,538.14,598.59,537.29ZM613.2,556.7l-.19-.1h0Zm.51.27-.5-.26Zm-1-.53-.46-.25Zm11-22.55a24.3,24.3,0,0,1-4.66,5.4c-3.71,2.93-6.82,2.28-9.33,7.34a7.48,7.48,0,0,0,3.07,9.86l.21.11h0l-.17-.09.17.09h0a6.92,6.92,0,0,0,9.35-2.91l.15-.28c2.48-5.06.14-7.32.25-12.13a28.18,28.18,0,0,1,1.38-7.16A1.72,1.72,0,0,1,623.72,533.89Z"/><path class="cls-12" d="M603.41,514.1a7.54,7.54,0,0,0,1.24,10.29c4.31,3.48,6.89,1.51,11.45,2.54a25.06,25.06,0,0,1,6.48,2.76,1.68,1.68,0,0,1,.3-.4,24.87,24.87,0,0,1-4.23-5.76c-2.09-4.34-.88-7.41-5.19-10.9a6.87,6.87,0,0,0-9.68,1,3,3,0,0,0-.22.28Z"/></g></g><line class="cls-5" x1="890.86" y1="720.78" x2="694.63" y2="720.78"/><circle class="cls-10" cx="208.95" cy="723.67" r="82.72"/><path class="cls-13" d="M151,722.82a58.1,58.1,0,1,0,58.91-57.27h-.09A58.09,58.09,0,0,0,151,722.82Z"/><path class="cls-10" d="M188,723.25a21,21,0,1,0,21.31-20.73A21,21,0,0,0,188,723.25Z"/><circle class="cls-10" cx="790.55" cy="723.65" r="82.72"/><path class="cls-13" d="M732.49,722.82a57.27,57.27,0,1,0,0-.06Z"/><path class="cls-10" d="M761.77,723.15a28.41,28.41,0,1,0,0-.06Z"/><path class="cls-14" d="M313.64,250.8s149.3-8.42,144.68,46c0,0,1.57,42.15-30.39,46.24s-40.84-160.34,98.92-128.68,136.3,162.76,136.3,162.76"/><path class="cls-15" d="M197.06,140.06l8.19,28.81L223,164.35l-8.41-31.55c7.86-1.06,19.25-7.19,19.25-7.19l13.49,35.17,47.92,23.67,35.9,154.88-17.26,39.25-98.42,18.69-44.89-19.46-29.9-159.66,25.24-34.6.52-25.12,5.19-2.68,7.11,19.92,10.58-2.51-6.93-25.84-6-19.6,7.19-2.79,4.26-1.19,3.64-.93Z"/><path class="cls-16" d="M183.26,366.5l-2.49-14.91s21.42,5.28,62.46-9.93c33.21-12.32,56.57,7.95,56.57,7.95L237,369Z"/><path class="cls-17" d="M181.79,358.7l1.47,7.8,34.49,16.89,88-16.89,8.1-32-2.28-10.14s-26.62-14.57-51.34,19.92C237.18,376.41,181.79,358.7,181.79,358.7Z"/><path class="cls-14" d="M155.93,312.36s-70.59,40.88-47,120.53,100.14,71.44,100.14,71.44"/><path class="cls-14" d="M655.37,738.32s-114.88,103.84-264.62,6.45"/><polygon class="cls-18" points="730.18 288.87 742.57 204.11 767.72 219.43 730.18 288.87"/><polygon class="cls-19" points="748.95 288.87 785.64 225.55 820.22 246.49 748.95 288.87"/><polygon class="cls-19" points="468.14 108.11 469.66 131.6 486.65 131.6 468.14 108.11"/><polygon class="cls-2" points="267.16 810.75 247.81 843.43 284.96 847.51 267.16 810.75"/><polygon class="cls-19" points="295.62 824.02 307.75 847.51 331.14 829.13 295.62 824.02"/><polygon class="cls-18" points="820.22 835.77 824.04 863.85 836.69 856.7 820.22 835.77"/><polygon class="cls-19" points="824.04 814.83 836.69 835.77 855.18 814.83 824.04 814.83"/></g></g></svg>