<svg width="48" height="48" viewBox="0 0 48 48" fill="none" xmlns="http://www.w3.org/2000/svg">
<path d="M44.1229 6.81797C41.6095 4.30452 38.2819 2.93077 34.7305 2.93077C31.1791 2.93077 27.8414 4.31469 25.328 6.82815L24.0153 8.14085L22.6822 6.8078C20.1688 4.29434 16.8209 2.90024 13.2695 2.90024C9.72825 2.90024 6.39054 4.28417 3.88726 6.78745C1.37381 9.3009 -0.0101202 12.6386 5.57206e-05 16.19C5.57206e-05 19.7414 1.39416 23.0689 3.90762 25.5824L23.018 44.6928C23.2826 44.9574 23.6388 45.0998 23.9847 45.0998C24.3307 45.0998 24.6869 44.9676 24.9515 44.703L44.1026 25.6231C46.616 23.1096 48 19.7719 48 16.2205C48.0101 12.6691 46.6364 9.33143 44.1229 6.81797ZM42.1691 23.6795L23.9847 41.7927L5.84104 23.649C3.84656 21.6545 2.74756 19.0087 2.74756 16.19C2.74756 13.3713 3.83638 10.7255 5.83087 8.74123C7.81518 6.75692 10.4609 5.65792 13.2695 5.65792C16.0882 5.65792 18.7441 6.75692 20.7386 8.7514L23.0384 11.0512C23.5777 11.5905 24.4427 11.5905 24.982 11.0512L27.2614 8.77175C29.2559 6.77727 31.9118 5.67827 34.7204 5.67827C37.5289 5.67827 40.1747 6.77727 42.1691 8.76158C44.1636 10.7561 45.2524 13.4018 45.2524 16.2205C45.2626 19.0393 44.1636 21.685 42.1691 23.6795Z"/>
</svg>
